# xmcd
#
# Track frame offsets:
#	150
#	13859
#	31659
#	62393
#	80295
#	108919
#	131519
#
# Disc length: 1977 seconds
#
# Revision: 0
# Processed by: cddbd v1.5.1PL0 Copyright (c) Steve Scherf et al.
# Submitted via: dBpowerAMP V4.0
#
DISCID=4707b707
DTITLE=BILLIE HOLIDAY - Lady sings the blues
DYEAR=1900
DGENRE=Blues
TTITLE0=SAY IT ISN'T SO
TTITLE1=I'VE GOT MY LOVE TO KEEP ME WARM
TTITLE2=I WISHED ON THE MOON
TTITLE3=ALWAYS
TTITLE4=EVERYTHING HAPPENS TO ME
TTITLE5=DO N0THING TILL YOUR HEAR FROM ME
TTITLE6=LADY SINGS THE BLUES
EXTD=
EXTT0=
EXTT1=
EXTT2=
EXTT3=
EXTT4=
EXTT5=
EXTT6=
PLAYORDER=
